<?xml version="1.0" standalone="no"?><!DOCTYPE svg PUBLIC "-//W3C//DTD SVG 1.1//EN" "http://www.w3.org/Graphics/SVG/1.1/DTD/svg11.dtd"><svg t="1591931742297" class="icon" viewBox="0 0 1024 1024" version="1.1" xmlns="http://www.w3.org/2000/svg" p-id="12543" xmlns:xlink="http://www.w3.org/1999/xlink" width="48" height="48"><defs><style type="text/css"></style></defs><path d="M562.526334 461.473699 562.526334 67.368423c0-26.947369-23.578948-50.526317-50.526317-50.526317l0 0c-26.947369 0-50.526317 23.578948-50.526317 50.526317l0 394.105276L67.368423 461.473699c-26.947369 0-50.526317 23.578948-50.526317 50.526317l0 0c0 26.947369 23.578948 50.526317 50.526317 50.526317l394.105276 0 0 394.105276c0 26.947369 23.578948 50.526317 50.526317 50.526317l0 0c26.947369 0 50.526317-23.578948 50.526317-50.526317L562.526334 562.526334l394.105276 0c26.947369 0 50.526317-23.578948 50.526317-50.526317l0 0c0-26.947369-23.578948-50.526317-50.526317-50.526317L562.526334 461.473699 562.526334 461.473699z" p-id="12544" fill="#707070"></path></svg>